Enemy at the Gates*2001*[DVD5][PAL][ENG, POL][multisub]

General information:
Country: USA, Germany, UK, Ireland 
Release: 7 February 2001 (Berlin International Film Festival)
Genre: Drama, History, Thriller, War 
Director: Jean-Jacques Annaud 
Screenplay: Jean-Jacques Annaud
Original Music: James Horner
Cinematography by: Robert Fraisse 
Duration: 2h 03mn
Language: English, Polish
Subtitles: English, Polish, Czech, Estonian, Icelandic, Lithuanian, Latvian, Magyar, Turkish 
Rating: 8.1/10 - 30175 votes

Cast:
Jude Law  ...  Vassili Zaitsev  
Ed Harris  ...  Major König  
Rachel Weisz  ...  Tania Chernova  
Joseph Fiennes  ...  Commisar Danilov  
Bob Hoskins  ...  Nikita Khrushchev  
Ron Perlman  ...  Koulikov  
Eva Mattes  ...  Mother Filipov  
Gabriel Thomson  ...  Sacha Filipov (as Gabriel Marshall-Thomson)  
Matthias Habich  ...  General Paulus  
Sophie Rois  ...  Ludmilla  
Ivan Shvedoff  ...  Volodya  
Mario Bandi  ...  Anton  

Plot:
Two Russian and German snipers play a game of cat-and-mouse during the Battle of Stalingrad.

Specifications:
General
Format                           : MPEG-PS
Overall bit rate                 : 5 208 Kbps

Video
Format                           : MPEG Video
Format version                   : Version 2
Format profile                   : Main@Main
Format settings, BVOP            : Yes
Format settings, Matrix          : Default
Bit rate mode                    : Variable
Bit rate                         : 4 464 Kbps
Nominal bit rate                 : 9 800 Kbps
Width                            : 720 pixels
Height                           : 576 pixels
Display aspect ratio             : 16:9
Frame rate                       : 25.000 fps
Standard                         : PAL

Audio 1
Format                           : AC-3
Format/Info                      : Audio Coding 3
Mode extension                   : CM (complete main)
Bit rate mode                    : Constant
Bit rate                         : 448 Kbps
Channel(s)                       : 6 channels
Channel positions                : Front: L C R, Side: L R, LFE
Sampling rate                    : 48.0 KHz
Bit depth                        : 16 bits
Stream size                      : 88.1 MiB (9%)

Audio 2
Format                           : AC-3
Format/Info                      : Audio Coding 3
Format profile                   : Dolby Digital
Mode extension                   : CM (complete main)
Bit rate mode                    : Constant
Bit rate                         : 192 Kbps
Channel(s)                       : 2 channels
Channel positions                : Front: L R
Sampling rate                    : 48.0 KHz
Bit depth                        : 16 bits
Stream size                      : 37.7 MiB (4%)

Text 
Format                           : RLE
Format/Info                      : Run-length encoding
